HIERARCHY
ROOT Hips
{
	OFFSET -3.958830 18.904000 13.208200
	CHANNELS 6 Xposition Yposition Zposition Zrotation Yrotation Xrotation 
	JOINT LHipJoint
	{
		OFFSET 0.000000 0.000000 0.000000
		CHANNELS 3 Zrotation Yrotation Xrotation
		JOINT LeftUpLeg
		{
			OFFSET 1.800000 -1.400000 0.085000
			CHANNELS 3 Zrotation Yrotation Xrotation
			JOINT LeftLeg
			{
				OFFSET 2.215000 -6.000000 0.000000
				CHANNELS 3 Zrotation Yrotation Xrotation
				JOINT LeftFoot
				{
					OFFSET 2.500000 -6.900000 0.000000
					CHANNELS 3 Zrotation Yrotation Xrotation
					JOINT LeftToeBase
					{
						OFFSET 0.200000 -0.500000 1.950000
						CHANNELS 3 Zrotation Yrotation Xrotation
						End Site
						{
							OFFSET 0.000000 0.000000 0.000000
						}
					}
				}
			}
		}
	}
	JOINT RHipJoint
	{
		OFFSET 0.000000 0.000000 0.000000
		CHANNELS 3 Zrotation Yrotation Xrotation
		JOINT RightUpLeg
		{
			OFFSET -1.800000 -1.400000 0.085000
			CHANNELS 3 Zrotation Yrotation Xrotation
			JOINT RightLeg
			{
				OFFSET -2.215000 -6.000000 0.000000
				CHANNELS 3 Zrotation Yrotation Xrotation
				JOINT RightFoot
				{
					OFFSET -2.500000 -6.900000 0.000000
					CHANNELS 3 Zrotation Yrotation Xrotation
					JOINT RightToeBase
					{
						OFFSET -0.200000 -0.500000 1.950000
						CHANNELS 3 Zrotation Yrotation Xrotation
						End Site
						{
							OFFSET 0.000000 0.000000 0.000000
						}
					}
				}
			}
		}
	}
	JOINT LowerBack
	{
		OFFSET 0.000000 0.000000 0.000000
		CHANNELS 3 Zrotation Yrotation Xrotation
		JOINT Spine
		{
			OFFSET -0.087000 1.940000 -0.288900
			CHANNELS 3 Zrotation Yrotation Xrotation
			JOINT Spine1
			{
				OFFSET 0.000000 1.950000 0.060000
				CHANNELS 3 Zrotation Yrotation Xrotation
				JOINT Neck
				{
					OFFSET 0.000000 0.000000 0.000000
					CHANNELS 3 Zrotation Yrotation Xrotation
					JOINT Neck1
					{
						OFFSET 0.000000 1.600000 0.340000
						CHANNELS 3 Zrotation Yrotation Xrotation
						JOINT Head
						{
							OFFSET 0.000000 1.667000 -0.240000
							CHANNELS 3 Zrotation Yrotation Xrotation
							End Site
							{
								OFFSET 0.000000 0.000000 0.000000
							}
						}
					}
				}
				JOINT LeftShoulder
				{
					OFFSET 0.000000 0.000000 0.000000
					CHANNELS 3 Zrotation Yrotation Xrotation
					JOINT LeftArm
					{
						OFFSET 2.700000 1.550000 -0.730000
						CHANNELS 3 Zrotation Yrotation Xrotation
						JOINT LeftForeArm
						{
							OFFSET 5.450000 0.000000 0.000000
							CHANNELS 3 Zrotation Yrotation Xrotation
							JOINT LeftHand
							{
								OFFSET 3.450000 0.000000 0.000000
								CHANNELS 3 Zrotation Yrotation Xrotation
								JOINT LeftHandIndex1
								{
									OFFSET 0.750000 0.000000 0.000000
									CHANNELS 3 Zrotation Yrotation Xrotation
									End Site
									{
										OFFSET 0.000000 0.000000 0.000000
									}
								}
							}
						}
					}
				}
				JOINT RightShoulder
				{
					OFFSET 0.000000 0.000000 0.000000
					CHANNELS 3 Zrotation Yrotation Xrotation
					JOINT RightArm
					{
						OFFSET -2.700000 1.550000 -0.730000
						CHANNELS 3 Zrotation Yrotation Xrotation
						JOINT RightForeArm
						{
							OFFSET -5.450000 0.000000 0.000000
							CHANNELS 3 Zrotation Yrotation Xrotation
							JOINT RightHand
							{
								OFFSET -3.450000 0.000000 0.000000
								CHANNELS 3 Zrotation Yrotation Xrotation
								JOINT RightHandIndex1
								{
									OFFSET -0.750000 0.000000 0.000000
									CHANNELS 3 Zrotation Yrotation Xrotation
									End Site
									{
										OFFSET 0.000000 0.000000 0.000000
									}
								}
							}
						}
					}
				}
			}
		}
	}
}
MOTION
Frames: 12
Frame Time: 0.016667
-1.555840 17.642220 -2.219360 12.108231 12.212172 -18.939682 -15.969524 9.972942 7.912066 -23.440542 -26.858116 -81.078104 20.671108 -0.890913 65.878313 0.906559 10.639790 0.721981 0.334410 0.132200 0.150690 18.036317 -8.724249 1.825233 -20.258416 3.850524 16.051444 11.017350 -7.904346 8.425442 -1.039014 -5.990793 2.289215 -0.043810 0.027180 0.238480 -2.214079 -2.690453 -9.607398 -3.480252 10.614125 51.288494 0.200831 10.076494 13.174954 3.805992 -7.248301 -16.528759 -14.749959 8.555354 50.648914 4.883350 -2.355330 -21.217820 -17.579051 -18.338272 9.974402 -47.769990 13.984092 -17.939638 -46.716833 -29.011645 3.131060 -3.261644 3.125171 0.714770 -0.250940 0.285360 0.096160 10.513091 35.488162 10.711015 23.258078 23.507466 -20.456533 -117.130621 38.944931 -78.733398 2.170714 -0.855538 -0.006310 0.274320 0.152120 -0.078820 
-1.538790 17.783750 -2.214210 12.088517 10.904584 -19.972121 -15.981529 10.075090 7.732204 -18.885466 -24.726666 -82.715427 18.486489 1.186749 70.605948 1.084413 11.452514 0.483857 0.331490 0.146290 0.154700 18.017862 -8.707436 1.852783 -20.378092 3.618307 16.654923 10.586441 -7.757005 7.575253 -1.042048 -6.034111 2.284796 -0.042640 0.033080 0.241180 -2.164882 -2.788569 -9.542638 -4.324973 11.365264 51.702310 0.801023 10.664339 14.473941 3.704279 -6.663532 -15.936117 -12.971983 7.810690 49.143389 4.122090 -2.135860 -20.818910 -14.965237 -17.226248 10.047448 -46.831253 14.374585 -18.193675 -55.949963 -30.315596 5.247702 -3.283102 3.199788 0.666830 -0.225870 0.271620 0.093320 7.793058 34.362605 9.903886 22.222332 24.926491 -19.042475 -120.689562 34.870407 -79.920615 2.130008 -1.029427 0.011970 0.258810 0.140860 -0.068700 
-1.526990 17.956490 -2.212430 12.726341 9.368825 -20.582062 -16.024387 10.217248 7.577036 -15.092990 -22.277046 -82.718620 16.425245 3.703997 73.706957 1.179062 12.104085 0.299869 0.326980 0.132860 0.164180 17.969900 -8.680424 1.795091 -21.184658 3.535376 16.159801 10.164374 -7.672258 7.499945 -1.004168 -6.024194 2.287933 -0.032680 0.062080 0.253250 -2.029673 -3.002829 -9.436156 -6.394609 12.939782 51.281107 2.107936 11.436421 16.061635 3.375603 -5.859478 -15.134026 -10.814880 7.178718 47.857891 3.240490 -1.855040 -20.104030 -12.387743 -15.842735 9.907940 -45.515273 14.282753 -17.750259 -65.435018 -31.148328 7.694825 -3.330030 3.259118 0.643540 -0.184270 0.244460 0.091410 5.501973 32.886927 9.076748 21.328367 26.398870 -17.601772 -124.007432 30.805629 -80.251736 2.062787 -1.176982 -0.002420 0.261480 0.147830 -0.078260 
-1.511500 18.142180 -2.215310 13.331469 7.582564 -21.190405 -16.071991 10.467632 7.405836 -11.954973 -19.594700 -80.826311 14.364019 6.548370 76.582043 1.285029 12.770575 0.096992 0.334650 0.140740 0.183620 17.902611 -8.706120 1.662002 -22.094586 3.408188 14.648310 9.788628 -7.710045 8.792060 -0.946088 -5.921952 2.304019 -0.015540 0.058480 0.262670 -1.873082 -3.310333 -9.299193 -8.618103 14.538866 50.850114 3.506726 12.107567 17.056579 3.062591 -5.070545 -14.421586 -9.053128 6.819917 47.578218 2.583430 -1.566600 -20.345370 -10.506953 -14.564526 9.543812 -44.359165 13.856932 -17.119819 -72.648943 -29.654791 8.386361 -3.361434 3.288899 0.642440 -0.169500 0.242830 0.077550 3.915779 31.394037 8.474696 20.999405 27.501853 -16.133195 -127.242853 27.856186 -81.459441 2.006683 -1.266167 -0.008350 0.260140 0.154260 -0.092710 
-1.486690 18.329530 -2.221980 13.661969 5.464015 -21.972958 -16.096849 10.853337 7.188163 -9.715911 -16.862475 -77.193305 12.918370 9.046746 78.760116 1.411453 13.322454 -0.066924 0.357940 0.163060 0.217510 17.830436 -8.859260 1.455817 -22.817079 3.264059 11.953197 9.332401 -7.874304 12.064327 -0.870793 -5.735615 2.334868 -0.004720 0.026340 0.269750 -1.756762 -3.596613 -9.131918 -10.448132 15.854913 50.922760 4.514872 12.643029 17.099207 2.857754 -4.496318 -13.969577 -7.921417 6.725861 48.168341 2.337420 -1.409440 -20.747120 -10.180318 -13.639805 9.197952 -43.481620 14.165126 -17.036513 -77.279028 -27.444648 7.692392 -3.357702 3.308870 0.651150 -0.184200 0.262900 0.066830 3.773104 30.329883 8.152061 20.914569 27.925570 -14.822517 -130.374525 25.908678 -83.336795 1.980541 -1.330720 0.003910 0.245180 0.142200 -0.103510 
-1.453200 18.510960 -2.239300 13.215642 3.244119 -23.243906 -16.078466 11.411690 6.873452 -7.880745 -13.960282 -71.296521 12.165966 10.795429 79.846129 1.469973 13.668794 -0.175973 0.387740 0.177860 0.261430 17.768943 -9.173236 1.209111 -22.522541 3.113153 8.454829 8.184981 -8.028874 17.690762 -0.801716 -5.546372 2.359237 0.008460 -0.008500 0.282740 -1.718027 -3.837105 -8.918708 -10.991760 16.195720 52.196445 4.841065 12.844760 16.644760 2.862091 -4.410858 -13.586526 -7.844507 7.070558 49.139964 1.700220 -1.505670 -21.857210 -10.515137 -12.880380 8.709867 -42.543651 14.452930 -17.181135 -80.604183 -24.958790 6.177926 -3.355376 3.298095 0.689930 -0.208590 0.293550 0.055680 3.933522 29.631786 7.877864 21.194004 28.154775 -13.884333 -133.229514 24.829839 -86.271262 1.947526 -1.355820 0.004680 0.246790 0.138210 -0.123260 
-1.410560 18.663160 -2.272940 11.993518 0.940662 -24.818415 -15.980711 12.043855 6.429348 -6.127569 -10.905950 -64.126516 11.092585 12.231801 79.200251 1.428308 13.713896 -0.216183 0.404540 0.178930 0.289270 17.753810 -9.617478 1.052309 -20.892128 3.584053 4.138439 6.496674 -7.985407 25.805493 -0.768081 -5.554839 2.320767 0.024320 -0.043720 0.265270 -1.841062 -3.846438 -8.690866 -9.703421 15.293054 54.758721 3.983523 12.681010 15.529784 2.989867 -4.939338 -13.433925 -9.144071 8.025126 50.495647 1.524620 -2.082370 -23.291570 -11.109151 -12.302078 8.169004 -41.687279 14.817986 -17.661085 -82.824000 -22.741638 4.355089 -3.341675 3.253609 0.746930 -0.247530 0.312150 0.035530 4.197766 29.234968 7.753338 22.102084 28.122770 -13.163084 -136.055921 24.195691 -90.252054 1.911723 -1.345610 -0.018800 0.272540 0.149550 -0.149700 
-1.357060 18.774350 -2.302890 10.014080 -1.769672 -26.257586 -15.848205 12.663449 5.823130 -3.998133 -7.543325 -56.825652 10.110084 13.193253 77.299522 1.322855 13.505181 -0.201877 0.434460 0.192910 0.330080 17.777827 -9.950669 1.149856 -17.772152 5.237076 -0.582431 4.863492 -7.676494 35.433677 -0.857164 -5.963495 2.141873 0.044040 -0.099880 0.249940 -2.031870 -3.781461 -8.505292 -7.099362 13.617904 57.639179 2.730774 12.383609 13.975234 3.228915 -5.690983 -13.440973 -11.041732 9.338172 52.229350 1.290120 -2.808540 -25.263190 -11.489631 -11.580873 7.584116 -41.446393 15.182373 -18.301951 -84.226506 -20.158116 1.974201 -3.305467 3.206896 0.814720 -0.305450 0.349210 0.015440 4.106824 28.645739 7.654305 23.855953 28.105364 -12.329914 -138.785612 23.923210 -95.044394 1.889167 -1.323635 -0.033770 0.294720 0.151830 -0.175600 
-1.284120 18.853470 -2.327940 6.746983 -4.377476 -27.131466 -15.690858 13.039773 5.103386 -0.989734 -4.315025 -50.055816 9.412179 13.497320 74.570737 1.176250 13.075644 -0.118702 0.486860 0.241200 0.381380 17.878757 -9.958346 1.690707 -13.544673 8.630931 -5.934724 5.158099 -8.184007 46.483752 -1.158777 -7.060267 1.751935 0.077280 -0.164290 0.228170 -2.343909 -3.567902 -8.477741 -2.252159 10.259150 60.793953 0.537603 11.483065 12.035211 3.796272 -6.478519 -13.402967 -13.182017 10.742472 54.050127 0.650680 -3.796000 -27.629040 -12.308482 -10.899628 6.788570 -40.773869 15.018975 -18.520533 -84.246283 -17.666551 -0.289389 -3.257910 3.160311 0.873380 -0.372480 0.396920 0.012860 3.866058 27.648306 7.426375 26.195394 28.209300 -11.174794 -141.425177 23.750355 -99.841394 1.873036 -1.309111 -0.036480 0.328030 0.132970 -0.191430 
-1.202930 18.899040 -2.337190 2.846267 -6.139094 -27.353657 -15.553567 13.219186 4.264114 2.102975 -1.593571 -43.416294 9.044879 13.136774 70.843050 0.992978 12.400783 0.039358 0.546380 0.303900 0.428640 18.020011 -9.593246 2.635988 -9.797356 13.252875 -11.579331 7.960445 -10.752690 57.217540 -1.657210 -8.735597 1.206702 0.111060 -0.233620 0.218850 -2.697568 -3.447539 -8.574269 3.324885 5.756287 63.480588 -2.001639 9.636337 10.099367 4.590921 -7.306655 -13.536106 -15.615183 12.405046 55.979797 -0.339580 -5.040850 -30.017200 -13.516180 -10.872812 6.222614 -40.125926 15.103032 -18.784181 -82.912853 -15.328973 -2.555925 -3.208550 3.122193 0.920860 -0.441710 0.453210 0.015490 3.716941 26.884018 7.269712 28.826490 28.260910 -10.120019 -143.670257 23.783137 -104.370013 1.873264 -1.299112 -0.019730 0.350590 0.109180 -0.193770 
-1.121580 18.883730 -2.328980 -1.413322 -6.966107 -26.343643 -15.453931 13.140255 3.463899 5.215533 0.407189 -38.096350 8.708874 12.560127 66.491799 0.786895 11.630924 0.247802 0.577880 0.325650 0.452580 18.192730 -8.946121 3.805811 -7.924882 18.372603 -18.817427 13.095346 -16.097434 66.302794 -2.252402 -10.775456 0.618431 0.129510 -0.268620 0.206990 -3.070137 -3.347335 -8.767908 9.169125 0.774444 64.139821 -4.102883 7.157025 8.520609 5.218674 -8.017949 -13.702213 -17.637860 13.954493 57.183321 -1.229590 -6.088380 -30.792430 -13.987636 -10.962572 5.894877 -40.452294 15.090145 -18.975731 -80.500974 -12.896052 -4.701905 -3.181855 3.090317 0.946660 -0.481760 0.474180 0.022380 3.270909 25.835605 7.218926 31.599158 28.327329 -8.786222 -145.305787 23.417735 -106.552816 1.874172 -1.302748 -0.018860 0.368420 0.096660 -0.195470 
-1.039370 18.824300 -2.309120 -5.712414 -7.230786 -24.811265 -15.372851 12.954209 2.721134 8.440963 2.012925 -33.487302 8.244798 12.024032 61.661502 0.593785 10.783114 0.492843 0.605810 0.358220 0.458240 18.372977 -8.246981 4.968682 -8.732340 23.264811 -27.742289 19.625443 -23.762926 73.098430 -2.897282 -12.993826 0.055629 0.147390 -0.293240 0.198790 -3.441877 -3.251808 -8.954842 15.075264 -4.234063 63.453860 -6.021549 4.393381 7.353221 5.806324 -8.760307 -13.681855 -19.345921 15.339052 56.860320 -1.981190 -6.683170 -31.062110 -14.219123 -10.840397 5.577944 -41.411971 14.852294 -18.961464 -77.094835 -11.019574 -6.010687 -3.161059 3.087752 0.937710 -0.503610 0.480340 0.035510 2.608112 24.576902 7.135523 33.808858 28.554544 -7.294556 -146.355315 22.551804 -106.240707 1.873686 -1.338137 -0.002190 0.365670 0.078550 -0.184450 
